<svg width="114" height="100" viewBox="0 0 114 100" fill="none" xmlns="http://www.w3.org/2000/svg">
<path d="M84.2101 84.8984C84.209 84.8981 84.2091 84.8964 84.2102 84.8964C126.67 84.8869 127.561 0 58.8446 0C47.6754 0 37.6457 3.09711 29.4191 8.39819C1.1245 26.6307 3.89175 77.2156 34.9004 90.3103C41.8198 93.2323 49.828 94.6632 58.8446 94.6632C89.6833 94.6632 117.229 94.6632 84.2101 84.8984Z" fill="#98D4FF"/>
<path d="M73.9214 89.9887C73.8611 91.4269 74.6725 93.3711 76.7879 93.9943C78.5743 94.5226 80.1643 95.0172 81.571 95.4795C79.3728 95.6098 76.857 95.7045 74.0747 95.7708C67.7289 95.922 60.2767 95.9223 52.5532 95.9223C43.9527 95.9223 36.4936 94.5569 30.1651 91.8845C16.4416 86.0891 8.58756 71.8029 7.6219 56.2914C6.656 40.7761 12.6666 25.1567 25.2944 17.0196C32.8624 12.1429 42.1374 9.25906 52.5532 9.25906C68.866 9.25906 80.7126 14.2764 88.8136 21.507C96.9537 28.7726 101.558 38.4922 102.968 48.2744C104.384 58.0982 102.545 67.726 98.1406 74.7645C93.8081 81.6882 87.0058 86.1531 77.9188 86.1554L73.9214 89.9887ZM73.9214 89.9887C73.9532 89.2319 74.2148 88.2998 74.9309 87.4956M73.9214 89.9887L74.9309 87.4956M74.9309 87.4956C75.7145 86.6156 76.8142 86.1557 77.9179 86.1554L74.9309 87.4956ZM79.0531 86.3217C79.055 86.3223 79.0569 86.3228 79.0588 86.3234C79.0545 86.3221 79.0501 86.3208 79.0458 86.3196L79.0531 86.3217Z" stroke="#333333" stroke-width="8"/>
<line x1="27.7212" y1="43.7047" x2="58.1103" y2="43.7047" stroke="#333333" stroke-width="5" stroke-linecap="round"/>
<line x1="68.6186" y1="43.329" x2="79.3471" y2="43.329" stroke="#333333" stroke-width="5" stroke-linecap="round"/>
<line x1="27.7245" y1="57.6036" x2="38.453" y2="57.6036" stroke="#333333" stroke-width="5" stroke-linecap="round"/>
<line x1="48.9579" y1="57.6036" x2="79.3471" y2="57.6036" stroke="#333333" stroke-width="5" stroke-linecap="round"/>
</svg>
