<svg width="33" height="34" viewBox="0 0 33 34" fill="none" xmlns="http://www.w3.org/2000/svg">
<path d="M16.9083 17.2517C16.9083 19.0083 18.3333 20.4333 20.09 20.4333H25.9833C24.9717 23.72 22.4817 26.2117 18.8833 26.8767C13.165 27.935 7.44666 23.7683 6.89999 17.9783C6.33332 11.9867 11.0317 6.94501 16.9083 6.94501C18.5783 6.94501 20.1517 7.35501 21.5367 8.07667C22.7983 8.73501 24.3417 8.47001 25.3467 7.46334C26.9367 5.87334 26.515 3.19167 24.5167 2.16501C21.72 0.72834 18.465 0.0583403 15.03 0.435007C7.39166 1.27167 1.17999 7.47834 0.343324 15.1167C-0.758343 25.1667 7.08166 33.6667 16.9083 33.6667C27.5217 33.6667 31.8617 26.1417 32.74 19.67C33.1433 16.7033 30.77 14.0833 27.7767 14.08L20.0933 14.07C18.335 14.0667 16.9083 15.4917 16.9083 17.2517Z" fill="black"/>
</svg>
