<svg width="335" height="156" viewBox="0 0 335 156" fill="none" xmlns="http://www.w3.org/2000/svg">
<path d="M328 135C328 135 256.142 135 167.5 135C78.8583 135 7 135 7 135C7 60.4416 78.8583 0 167.5 0C256.142 0 328 60.4416 328 135Z" fill="#E8F0FA"/>
<path d="M21.5793 127.5H21.5339C23.2194 65.3537 87.5908 14.5 168 14.5C248.409 14.5 312.781 65.3537 314.466 127.5H314.421H314.334H314.246H314.156H314.065H313.973H313.879H313.784H313.688H313.59H313.49H313.39H313.288H313.185H313.08H312.974H312.866H312.758H312.648H312.536H312.423H312.309H312.194H312.077H311.959H311.839H311.718H311.596H311.472H311.348H311.221H311.094H310.965H310.835H310.703H310.571H310.437H310.301H310.165H310.027H309.887H309.747H309.605H309.462H309.317H309.171H309.024H308.876H308.726H308.575H308.423H308.27H308.115H307.959H307.801H307.643H307.483H307.322H307.16H306.996H306.831H306.665H306.497H306.329H306.159H305.988H305.815H305.642H305.467H305.291H305.114H304.935H304.755H304.574H304.392H304.208H304.024H303.838H303.651H303.462H303.273H303.082H302.89H302.697H302.503H302.307H302.11H301.912H301.713H301.513H301.311H301.108H300.905H300.699H300.493H300.286H300.077H299.867H299.656H299.444H299.231H299.017H298.801H298.584H298.366H298.147H297.927H297.705H297.483H297.259H297.034H296.808H296.581H296.353H296.124H295.893H295.662H295.429H295.195H294.96H294.724H294.486H294.248H294.009H293.768H293.526H293.284H293.04H292.795H292.549H292.301H292.053H291.804H291.553H291.302H291.049H290.795H290.54H290.284H290.027H289.769H289.51H289.25H288.989H288.727H288.463H288.199H287.933H287.667H287.399H287.13H286.861H286.59H286.318H286.045H285.771H285.496H285.22H284.943H284.665H284.386H284.106H283.825H283.543H283.26H282.976H282.69H282.404H282.117H281.829H281.54H281.249H280.958H280.666H280.373H280.079H279.783H279.487H279.19H278.892H278.593H278.293H277.991H277.689H277.386H277.082H276.777H276.471H276.164H275.856H275.548H275.238H274.927H274.615H274.303H273.989H273.674H273.359H273.042H272.725H272.407H272.087H271.767H271.446H271.124H270.801H270.477H270.152H269.827H269.5H269.172H268.844H268.515H268.184H267.853H267.521H267.188H266.854H266.519H266.183H265.847H265.509H265.171H264.832H264.492H264.151H263.809H263.466H263.122H262.778H262.432H262.086H261.739H261.391H261.042H260.693H260.342H259.991H259.638H259.285H258.931H258.577H258.221H257.865H257.507H257.149H256.79H256.43H256.07H255.708H255.346H254.983H254.619H254.254H253.889H253.522H253.155H252.787H252.418H252.049H251.678H251.307H250.935H250.563H250.189H249.815H249.44H249.064H248.687H248.309H247.931H247.552H247.172H246.792H246.411H246.028H245.646H245.262H244.878H244.492H244.107H243.72H243.332H242.944H242.555H242.166H241.775H241.384H240.992H240.6H240.207H239.813H239.418H239.022H238.626H238.229H237.831H237.433H237.034H236.634H236.234H235.832H235.431H235.028H234.625H234.221H233.816H233.411H233.004H232.598H232.19H231.782H231.373H230.964H230.554H230.143H229.731H229.319H228.906H228.493H228.078H227.664H227.248H226.832H226.415H225.998H225.579H225.161H224.741H224.321H223.9H223.479H223.057H222.635H222.211H221.787H221.363H220.938H220.512H220.086H219.659H219.231H218.803H218.374H217.945H217.515H217.084H216.653H216.221H215.789H215.356H214.922H214.488H214.053H213.618H213.182H212.745H212.308H211.87H211.432H210.993H210.554H210.114H209.673H209.232H208.791H208.348H207.906H207.462H207.018H206.574H206.129H205.683H205.237H204.791H204.344H203.896H203.448H202.999H202.55H202.1H201.65H201.199H200.748H200.296H199.843H199.39H198.937H198.483H198.029H197.574H197.118H196.662H196.206H195.749H195.292H194.834H194.375H193.917H193.457H192.997H192.537H192.076H191.615H191.153H190.691H190.229H189.765H189.302H188.838H188.373H187.908H187.443H186.977H186.511H186.044H185.577H185.109H184.641H184.173H183.704H183.234H182.765H182.294H181.824H181.353H180.881H180.409H179.937H179.464H178.991H178.517H178.043H177.569H177.094H176.619H176.143H175.668H175.191H174.714H174.237H173.76H173.282H172.803H172.325H171.846H171.366H170.887H170.406H169.926H169.445H168.964H168.482H168H167.518H167.036H166.555H166.074H165.594H165.113H164.634H164.154H163.675H163.197H162.718H162.24H161.763H161.286H160.809H160.332H159.857H159.381H158.906H158.431H157.957H157.483H157.009H156.536H156.063H155.591H155.119H154.647H154.176H153.706H153.235H152.766H152.296H151.827H151.359H150.891H150.423H149.956H149.489H149.023H148.557H148.092H147.627H147.162H146.698H146.235H145.771H145.309H144.847H144.385H143.924H143.463H143.003H142.543H142.083H141.625H141.166H140.708H140.251H139.794H139.338H138.882H138.426H137.971H137.517H137.063H136.61H136.157H135.704H135.252H134.801H134.35H133.9H133.45H133.001H132.552H132.104H131.656H131.209H130.763H130.317H129.871H129.426H128.982H128.538H128.094H127.652H127.209H126.768H126.327H125.886H125.446H125.007H124.568H124.13H123.692H123.255H122.818H122.382H121.947H121.512H121.078H120.644H120.211H119.779H119.347H118.916H118.485H118.055H117.626H117.197H116.769H116.341H115.914H115.488H115.062H114.637H114.213H113.789H113.365H112.943H112.521H112.1H111.679H111.259H110.839H110.421H110.002H109.585H109.168H108.752H108.336H107.922H107.507H107.094H106.681H106.269H105.857H105.446H105.036H104.627H104.218H103.81H103.402H102.996H102.589H102.184H101.779H101.375H100.972H100.569H100.168H99.7663H99.3658H98.966H98.5669H98.1686H97.7709H97.374H96.9778H96.5823H96.1875H95.7934H95.4001H95.0076H94.6157H94.2246H93.8342H93.4446H93.0557H92.6675H92.2802H91.8935H91.5076H91.1225H90.7381H90.3545H89.9716H89.5895H89.2082H88.8276H88.4478H88.0688H87.6905H87.313H86.9363H86.5604H86.1853H85.811H85.4374H85.0647H84.6927H84.3215H83.9511H83.5816H83.2128H82.8448H82.4777H82.1113H81.7458H81.381H81.0171H80.654H80.2918H79.9303H79.5697H79.2099H78.8509H78.4928H78.1355H77.779H77.4234H77.0686H76.7147H76.3616H76.0093H75.6579H75.3074H74.9577H74.6089H74.2609H73.9138H73.5675H73.2222H72.8777H72.534H72.1912H71.8493H71.5083H71.1682H70.829H70.4906H70.1531H69.8165H69.4808H69.146H68.8121H68.4791H68.147H67.8158H67.4855H67.1561H66.8276H66.5H66.1733H65.8476H65.5228H65.1989H64.8759H64.5538H64.2327H63.9125H63.5933H63.2749H62.9575H62.6411H62.3256H62.011H61.6974H61.3847H61.073H60.7622H60.4524H60.1436H59.8357H59.5287H59.2228H58.9178H58.6138H58.3107H58.0086H57.7075H57.4074H57.1082H56.8101H56.5129H56.2167H55.9215H55.6273H55.334H55.0418H54.7506H54.4604H54.1712H53.8829H53.5957H53.3095H53.0244H52.7402H52.457H52.1749H51.8938H51.6137H51.3347H51.0566H50.7796H50.5037H50.2287H49.9548H49.682H49.4102H49.1394H48.8697H48.601H48.3334H48.0668H47.8013H47.5369H47.2735H47.0112H46.7499H46.4897H46.2306H45.9725H45.7156H45.4597H45.2048H44.9511H44.6984H44.4469H44.1964H43.947H43.6987H43.4515H43.2054H42.9604H42.7164H42.4736H42.2319H41.9914H41.7519H41.5135H41.2763H41.0401H40.8051H40.5712H40.3385H40.1068H39.8763H39.6469H39.4187H39.1916H38.9656H38.7408H38.5171H38.2946H38.0732H37.8529H37.6338H37.4159H37.1991H36.9835H36.769H36.5557H36.3436H36.1326H35.9228H35.7142H35.5068H35.3005H35.0954H34.8915H34.6888H34.4873H34.2869H34.0878H33.8898H33.693H33.4974H33.3031H33.1099H32.9179H32.7272H32.5376H32.3493H32.1622H31.9763H31.7916H31.6081H31.4259H31.2448H31.0651H30.8865H30.7092H30.5331H30.3582H30.1846H30.0122H29.8411H29.6712H29.5025H29.3351H29.169H29.0041H28.8405H28.6781H28.517H28.3572H28.1986H28.0413H27.8852H27.7305H27.577H27.4248H27.2738H27.1242H26.9758H26.8288H26.683H26.5385H26.3953H26.2534H26.1128H25.9734H25.8354H25.6987H25.5634H25.4293H25.2965H25.165H25.0349H24.9061H24.7786H24.6524H24.5276H24.404H24.2818H24.161H24.0415H23.9233H23.8064H23.6909H23.5768H23.4639H23.3525H23.2424H23.1336H23.0262H22.9201H22.8154H22.7121H22.6101H22.5096H22.4103H22.3125H22.216H22.1209H22.0272H21.9348H21.8438H21.7543H21.6661H21.5793Z" stroke="#333333" stroke-width="5"/>
<path d="M106.634 84.6532C113.372 92.218 104.112 103.231 93.9816 103.34C90.7889 103.374 87.41 103.382 83.9999 103.334C78.192 103.253 72.7199 103.127 68.0583 102.996C59.9512 102.769 53.2897 95.5974 57.525 88.6809C62.7962 80.0726 72.7133 74.3428 83.9999 74.5C93.0976 74.6267 101.199 78.552 106.634 84.6532Z" fill="#DCE4F5"/>
<path d="M288.477 118.156C294.378 123.563 288.297 130.619 280.294 130.545C271.947 130.469 260.739 130.274 248.865 129.804C237.581 129.358 226.549 128.832 218.507 128.355C210.921 127.905 207.277 120.706 213.094 115.816C220.953 109.209 235.333 105.123 251.595 105.766C267.349 106.389 280.993 111.298 288.477 118.156Z" fill="#DCE4F5"/>
<path d="M149.357 98.2086C153.742 104.569 147.148 111.415 139.423 111.353C137.302 111.336 135.041 111.29 132.724 111.198C130.091 111.094 127.489 110.969 125.095 110.833C118.16 110.438 113.786 104.164 117.689 98.4183C121.392 92.9674 127.54 89.5142 134.361 89.784C140.568 90.0295 145.977 93.305 149.357 98.2086Z" fill="#DCE4F5"/>
<path d="M250.396 61.6092C260.722 70.656 252.242 81.4916 238.528 80.8749C222.025 80.1328 199.496 79.0904 178 78C158.995 77.0359 140.217 75.8453 126.473 74.8128C113.579 73.8442 108.425 62.088 118.254 53.6878C131.71 42.1879 155.158 32.4314 181.592 33.7723C208.109 35.1175 235.032 48.1472 250.396 61.6092Z" fill="#DCE5F5"/>
<rect y="124" width="335" height="32" fill="white"/>
</svg>
