<svg width="60" height="60" viewBox="0 0 60 60" fill="none" xmlns="http://www.w3.org/2000/svg">
<path d="M33.8 52C48.1598 52 59.8 40.3598 59.8 26C59.8 11.6402 48.1598 0 33.8 0C19.4402 0 7.80005 11.6402 7.80005 26C7.80005 40.3598 19.4402 52 33.8 52Z" fill="#98D4FF"/>
<path d="M30.3 31.95C30.1008 31.925 29.8992 31.925 29.7 31.95C27.5799 31.8786 25.5705 30.9859 24.0964 29.4605C22.6223 27.9351 21.7988 25.8963 21.8 23.775C21.8 19.25 25.45 15.575 30 15.575C32.1486 15.5713 34.2126 16.412 35.7471 17.916C37.2815 19.42 38.1635 21.4667 38.2029 23.615C38.2422 25.7632 37.4358 27.8409 35.9575 29.4C34.4792 30.9592 32.4473 31.875 30.3 31.95V31.95ZM46.85 48.45C42.2557 52.6727 36.2401 55.0111 30 55C23.5 55 17.6 52.525 13.15 48.45C13.4 46.1 14.9 43.8 17.575 42C24.425 37.45 35.625 37.45 42.425 42C45.1 43.8 46.6 46.1 46.85 48.45V48.45Z" stroke="#333333" stroke-width="2" stroke-linecap="round" stroke-linejoin="round"/>
<path d="M30 55C43.8075 55 55 43.8075 55 30C55 16.1925 43.8075 5 30 5C16.1925 5 5 16.1925 5 30C5 43.8075 16.1925 55 30 55Z" stroke="#333333" stroke-width="3" stroke-linecap="round" stroke-linejoin="round"/>
</svg>
